# AST/ASF file generated using VICON BodyLanguage
# -----------------------------------------------
:version 1.10
:name VICON
:units
  mass 1.0
  length 0.45
  angle deg
:documentation
   .ast/.asf automatically generated from VICON data using
   VICON BodyBuilder and BodyLanguage model FoxedUp or BRILLIANT.MOD
:root
   order TX TY TZ RX RY RZ
   axis XYZ
   position 0 0 0  
   orientation 0 0 0 
:bonedata
  begin
     id 1 
     name lhipjoint
     direction 0.64773 -0.699417 0.302095 
     length 2.48597 
     axis 0 0 0  XYZ
  end
  begin
     id 2 
     name lfemur
     direction 0.34202 -0.939693 0  
     length 6.71947  
     axis 0 0 20  XYZ
    dof rx ry rz
    limits (-160.0 20.0)
           (-70.0 70.0)
           (-60.0 70.0)
  end
  begin
     id 3 
     name ltibia
     direction 0.34202 -0.939693 0   
     length 8.08777   
     axis 0 0 20   XYZ
    dof rx
    limits (-10.0 170.0)
  end
  begin
     id 4 
     name lfoot
     direction 0.0808503 -0.222134 0.971658   
     length 2.08264   
     axis -90 7.62852e-016 20   XYZ
    dof rx rz
    limits (-45.0 90.0)
           (-70.0 20.0)
  end
  begin
     id 5 
     name ltoes
     direction 1.53502e-011 -4.22007e-011 1   
     length 1.04662   
     axis -90 7.62852e-016 20   XYZ
    dof rx
    limits (-90.0 20.0)
  end
  begin
     id 6 
     name rhipjoint
     direction -0.610924 -0.726792 0.313919   
     length 2.39233  
     axis 0 0 0  XYZ 
  end
  begin
     id 7 
     name rfemur
     direction -0.34202 -0.939693 0   
     length 6.96955   
     axis 0 0 -20   XYZ
    dof rx ry rz
    limits (-160.0 20.0)
           (-70.0 70.0)
           (-70.0 60.0)
  end
  begin
     id 8 
     name rtibia
     direction -0.34202 -0.939693 0   
     length 8.19584   
     axis 0 0 -20   XYZ
    dof rx
    limits (-10.0 170.0)
 end
 begin
     id 9 
     name rfoot
     direction -0.077777 -0.213691 0.9738   
     length 2.07539  
     axis -90 -7.62852e-016 -20   XYZ
    dof rx rz
    limits (-45.0 90.0)
           (-20.0 70.0)
  end
  begin
     id 10 
     name rtoes
     direction -1.53558e-011 -4.22006e-011 1   
     length 1.04381   
     axis -90 -7.62852e-016 -20   XYZ
    dof rx
    limits (-90.0 20.0)
  end
  begin
     id 11 
     name lowerback
     direction -0.00971646 0.996074 0.0879841   
     length 1.67643   
     axis 0 0 0   XYZ
    dof rx ry rz
    limits (-20.0 45.0)
           (-30.0 30.0)
           (-30.0 30.0)
  end
  begin
     id 12 
     name upperback
     direction 0.0127391 0.991676 0.128127   
     length 1.63741   
     axis 0 0 0   XYZ
    dof rx ry rz
    limits (-20.0 45.0)
           (-30.0 30.0)
           (-30.0 30.0)
  end
  begin
     id 13 
     name thorax
     direction 0.0167583 0.996049 0.0872067   
     length 1.65931   
     axis 0 0 0   XYZ
    dof rx ry rz
    limits (-20.0 45.0)
           (-30.0 30.0)
           (-30.0 30.0)
  end
  begin
     id 14 
     name lowerneck
     direction -0.0317829 0.998312 0.0486079   
     length 1.79021   
     axis 0 0 0   XYZ
    dof rx ry rz
    limits (-20.0 45.0)
           (-30.0 30.0)
           (-30.0 30.0)
  end
  begin
     id 15 
     name upperneck
     direction 0.0896851 0.972452 -0.215159   
     length 1.78797   
     axis 0 0 0   XYZ
    dof rx ry rz
    limits (-20.0 45.0)
           (-30.0 30.0)
           (-30.0 30.0)
  end
  begin
     id 16
     name head
     direction 0.0310949 0.996503 -0.0775582  
     length 1.81549  
     axis 0 0 0   XYZ
    dof rx ry rz
    limits (-20.0 45.0)
           (-30.0 30.0)
           (-30.0 30.0)
  end
  begin
     id 17 
     name lclavicle
     direction 0.853638 0.502051 -0.138733  
     length 3.31627  
     axis 0 0 0   XYZ
    dof ry rz
    limits (-20.0 10.0)
           (0.0 20.0)
  end
  begin
     id 18 
     name lhumerus
     direction 1 -4.48962e-011 -1.41788e-018   
     length 5.54893   
     axis 180 -30 -90   XYZ
    dof rx ry rz
    limits (-60.0 90.0)
           (-90.0 90.0)
           (-90.0 90.0)
  end
  begin
     id 19
     name lradius
     direction 1 -4.48962e-011 -4.95754e-027   
     length 3.02898   
     axis 180 -30 -90   XYZ
    dof rx
    limits (-10.0 170.0)
  end
  begin
     id 20
     name lwrist
     direction 1 -4.48952e-011 -1.03764e-026   
     length 1.51449   
     axis 9.09556e-015 90 90   XYZ
    dof ry
    limits (-180.0 0.0)
 end
  begin
     id 21 
     name lhand
     direction 1 -4.4902e-011 -2.07528e-026   
     length 0.640951   
     axis 1.3242e-014 90 90   XYZ
    dof rx rz
    limits (-90.0 90.0)
           (-45.0 45.0)
  end
  begin
     id 22 
     name lfingers
     direction 1 -4.49014e-011 -4.15056e-026   
     length 0.516751   
     axis 2.64841e-014 90 90   XYZ
    dof rx
    limits (0.0 90.0)
  end
  begin
     id 23
     name lthumb
     direction 0.707107 -6.35008e-011 0.707107   
     length 0.741954   
     axis -90 45 2.85299e-015   XYZ
    dof rx rz
    limits (-45.0 45.0)
           (-45.0 45.0)
  end
  begin
     id 24 
     name rclavicle
     direction -0.888531 0.455324 -0.0565039   
     length 3.20126  
     axis 0 0 0   XYZ 
    dof ry rz
    limits (-10.0 20.0)
           (-20.0 0.0)
  end
  begin
     id 25 
     name rhumerus
     direction -1 -4.48946e-011 -8.98298e-028  
     length 5.3519   
     axis 180 30 90   XYZ
    dof rx ry rz
    limits (-90.0 60.0)
           (-90.0 90.0)
           (-90.0 90.0)
  end
  begin
     id 26 
     name rradius
     direction -1 -4.4899e-011 -3.18779e-027   
     length 3.02531   
     axis 180 30 90   XYZ
    dof rx
    limits (-10.0 170.0)
  end
  begin
     id 27 
     name rwrist
     direction -1 -4.4897e-011 -1.03764e-026   
     length 1.51266   
     axis 9.09556e-015 -90 -90   XYZ
    dof ry
    limits (-180.0 0.0)
  end
  begin
     id 28
     name rhand
     direction -1 -4.48941e-011 -2.07528e-026   
     length 0.78389   
     axis 1.3242e-014 -90 -90   XYZ
    dof rx rz
    limits (-90.0 90.0)
           (-45.0 45.0)
  end
  begin
     id 29
     name rfingers
     direction -1 -4.49012e-011 -4.15056e-026   
     length 0.631992   
     axis 2.64841e-014 -90 -90   XYZ
    dof rx
    limits (0.0 90.0)
  end
  begin
     id 30
     name rthumb
     direction -0.707107 -6.3496e-011 0.707107   
     length 0.907418   
     axis -90 -45 -2.85299e-015   XYZ
    dof rx rz
    limits (-45.0 45.0)
           (-45.0 45.0)
  end
:hierarchy
  begin
    root lhipjoint rhipjoint lowerback
    lhipjoint lfemur
    lfemur ltibia
    ltibia lfoot
    lfoot ltoes
    rhipjoint rfemur
    rfemur rtibia
    rtibia rfoot
    rfoot rtoes
    lowerback upperback
    upperback thorax
    thorax lowerneck lclavicle rclavicle
    lowerneck upperneck
    upperneck head
    lclavicle lhumerus
    lhumerus lradius
    lradius lwrist
    lwrist lhand lthumb
    lhand lfingers
    rclavicle rhumerus
    rhumerus rradius
    rradius rwrist
    rwrist rhand rthumb
    rhand rfingers
  end

#!OML:ASF E:\Style3\Style3.ASF
:FULLY-SPECIFIED
:DEGREES
2004
root 0.827649 17.7988 0.759073 51.2124 91.6204 33.9324
lowerback -12.7996 -1.86869 -0.384197
upperback -10.9027 -1.72867 1.96612
thorax -4.25232 -0.480804 2.10027
lowerneck -9.43527 -3.51969 -7.14276
upperneck 21.7071 -5.12879 8.50533
head 8.70803 -2.00794 3.58068
rclavicle -1.53561e-014 1.86858e-014
rhumerus -43.1709 -13.5519 -70.856
rradius 13.6698
rwrist 15.0875
rhand -15.4495 22.6918
rfingers 7.12502
rthumb 10.7312 -7.01408
lclavicle -1.53561e-014 1.86858e-014
lhumerus -55.6986 39.2373 46.3523
lradius 9.35635
lwrist -34.0506
lhand -12.7012 15.1842
lfingers 7.12502
lthumb 13.3812 44.7345
rfemur -14.5169 12.31 19.0037
rtibia 14.1
rfoot -15.9725 -22.3296
rtoes -12.9869
lfemur 0 0 0
ltibia 0
lfoot 0 0
ltoes 0
2005
root 0.828458 17.7986 0.758459 51.3131 91.6092 34.0412
lowerback -12.8036 -1.86601 -0.389583
upperback -10.8943 -1.72545 1.96959
thorax -4.24077 -0.479182 2.10701
lowerneck -9.45015 -3.52262 -7.14535
upperneck 21.7241 -5.13498 8.51766
head 8.71754 -2.00912 3.58494
rclavicle 6.4605e-016 9.54166e-015
rhumerus -43.1909 -13.7546 -70.6659
rradius 13.5995
rwrist 15.226
rhand -15.4255 22.7028
rfingers 7.12502
rthumb 10.7544 -7.00192
lclavicle 6.4605e-016 9.54166e-015
lhumerus -55.6719 39.2173 46.4004
lradius 9.38941
lwrist -33.9881
lhand -12.7499 15.2394
lfingers 7.12502
lthumb 13.3343 44.7928
rfemur -14.5178 12.3143 18.9973
rtibia 14.1329
rfoot -16.1568 -22.2437
rtoes -13.0133
lfemur 0 0 0
ltibia 0
lfoot 0 0
ltoes 0
2006
root 0.828309 17.7987 0.758168 50.7232 91.6231 33.4442
lowerback -12.8118 -1.86956 -0.376404
upperback -10.8866 -1.7322 1.95938
thorax -4.22842 -0.484169 2.088
lowerneck -9.44244 -3.52081 -7.14959
upperneck 21.6992 -5.13646 8.54184
head 8.70846 -2.00843 3.59343
rclavicle -6.5102e-015 1.03368e-014
rhumerus -43.1991 -13.8359 -70.6074
rradius 13.552
rwrist 15.2098
rhand -15.4329 22.789
rfingers 7.12502
rthumb 10.7472 -6.91606
lclavicle -6.5102e-015 1.03368e-014
lhumerus -55.6271 39.1705 46.4283
lradius 9.40294
lwrist -33.9403
lhand -12.5874 15.1683
lfingers 7.12502
lthumb 13.4909 44.7114
rfemur -14.5429 12.2168 19.011
rtibia 14.164
rfoot -16.0579 -22.2221
rtoes -13.4615
lfemur 0 0 0
ltibia 0
lfoot 0 0
ltoes 0
2007
root 0.827236 17.7989 0.758387 50.7769 91.6465 33.4937
lowerback -12.8067 -1.8723 -0.357413
upperback -10.884 -1.73798 1.95226
thorax -4.22892 -0.488671 2.06943
lowerneck -9.44675 -3.52525 -7.09645
upperneck 21.6894 -5.14785 8.52342
head 8.70501 -2.01136 3.57647
rclavicle 2.67365e-014 -8.74653e-015
rhumerus -43.2192 -13.8423 -70.6245
rradius 13.556
rwrist 15.1687
rhand -15.6022 22.8893
rfingers 7.12502
rthumb 10.5839 -6.82415
lclavicle 2.67365e-014 -8.74653e-015
lhumerus -55.5578 39.1485 46.4737
lradius 9.37935
lwrist -33.8271
lhand -12.5686 15.1703
lfingers 7.12502
lthumb 13.509 44.7121
rfemur -14.5445 12.2534 19.0173
rtibia 14.1494
rfoot -16.0523 -22.2236
rtoes -13.1086
lfemur 0 0 0
ltibia 0
lfoot 0 0
ltoes 0
2008
root 0.827682 17.7984 0.758137 50.9821 91.643 33.7118
lowerback -12.8247 -1.87385 -0.373041
upperback -10.8642 -1.74017 1.96681
thorax -4.19675 -0.489243 2.09257
lowerneck -9.47906 -3.51951 -7.09237
upperneck 21.7163 -5.13744 8.51095
head 8.71889 -2.00624 3.57283
rclavicle 1.02871e-014 -1.70955e-014
rhumerus -43.2368 -13.9521 -70.5136
rradius 13.5573
rwrist 15.3551
rhand -15.6778 22.8356
rfingers 7.12502
rthumb 10.5109 -6.88158
lclavicle 1.02871e-014 -1.70955e-014
lhumerus -55.4653 39.1854 46.5664
lradius 9.30798
lwrist -33.7362
lhand -12.526 15.1645
lfingers 7.12502
lthumb 13.5501 44.7036
rfemur -14.5236 12.2814 19.0143
rtibia 14.1348
rfoot -16.102 -22.2179
rtoes -12.7876
lfemur 0 0 0
ltibia 0
lfoot 0 0
ltoes 0
2009
root 0.827236 17.7985 0.758307 52.6539 91.6786 35.3552
lowerback -12.884 -1.87856 -0.338432
upperback -10.8425 -1.74951 2.00915
thorax -4.14091 -0.495148 2.11509
lowerneck -9.49703 -3.50638 -7.08336
upperneck 21.6897 -5.11448 8.48768
head 8.71029 -1.99763 3.56495
rclavicle 3.03147e-015 -1.07344e-014
rhumerus -43.1907 -13.9008 -70.5222
rradius 13.5784
rwrist 15.2663
rhand -15.736 22.7256
rfingers 7.12502
rthumb 10.4548 -6.99444
lclavicle 3.03147e-015 -1.07344e-014
lhumerus -55.5074 39.1798 46.5879
lradius 9.40728
lwrist -33.7192
lhand -12.4246 15.197
lfingers 7.12502
lthumb 13.6478 44.7296
rfemur -14.5548 12.2749 19.0781
rtibia 14.1208
rfoot -16.0676 -22.2305
rtoes -12.9879
lfemur 0 0 0
ltibia 0
lfoot 0 0
ltoes 0
2010
root 0.826747 17.7988 0.758033 52.5328 91.6818 35.2294
lowerback -12.8929 -1.85369 -0.329136
upperback -10.8265 -1.71949 1.97643
thorax -4.1211 -0.482609 2.07787
lowerneck -9.47283 -3.53876 -7.05551
upperneck 21.6242 -5.16554 8.49517
head 8.68747 -2.02049 3.55605
rclavicle 1.77415e-014 7.95139e-016
rhumerus -43.2489 -14.0427 -70.4452
rradius 13.5995
rwrist 15.2628
rhand -15.6599 22.6924
rfingers 7.12502
rthumb 10.5282 -7.02397
lclavicle 1.77415e-014 7.95139e-016
lhumerus -55.4138 39.0745 46.6678
lradius 9.44398
lwrist -33.6805
lhand -12.3665 15.1045
lfingers 7.12502
lthumb 13.7038 44.6333
rfemur -14.5625 12.2338 19.0881
rtibia 14.1262
rfoot -15.9799 -22.2695
rtoes -13.4655
lfemur 0 0 0
ltibia 0
lfoot 0 0
ltoes 0
2011
root 0.827294 17.799 0.756869 51.5417 91.628 34.2506
lowerback -12.8865 -1.81375 -0.349622
upperback -10.815 -1.6678 1.90628
thorax -4.11522 -0.458773 2.02051
lowerneck -9.48571 -3.5728 -7.03451
upperneck 21.6242 -5.22656 8.54298
head 8.69595 -2.0421 3.56224
rclavicle -1.51573e-014 1.39149e-014
rhumerus -43.3228 -14.1719 -70.4146
rradius 13.6242
rwrist 15.2624
rhand -15.6703 22.6617
rfingers 7.12502
rthumb 10.5182 -7.05514
lclavicle -1.51573e-014 1.39149e-014
lhumerus -55.284 38.9514 46.769
lradius 9.44493
lwrist -33.5817
lhand -12.3754 15.037
lfingers 7.12502
lthumb 13.6952 44.5664
rfemur -14.5365 12.224 19.0254
rtibia 14.1297
rfoot -16.0337 -22.2106
rtoes -13.5304
lfemur 0 0 0
ltibia 0
lfoot 0 0
ltoes 0
